<svg width="983" height="472" viewBox="0 0 983 472" fill="none" xmlns="http://www.w3.org/2000/svg">
<g clip-path="url(#clip0)">
<path d="M225.232 411.738C227.664 392.188 239.78 372.925 258.425 366.562C251.072 386.685 251.074 408.761 258.43 428.882C261.295 436.632 265.288 444.954 262.593 452.764C260.917 457.624 256.815 461.343 252.229 463.668C247.644 465.993 242.555 467.101 237.53 468.187L236.541 469.005C228.563 450.991 222.801 431.288 225.232 411.738Z" fill="#F0F0F0"/>
<path d="M258.61 366.933C247.752 379.099 241.003 394.377 239.322 410.597C238.899 414.082 239.027 417.613 239.702 421.058C240.469 424.393 242.115 427.462 244.468 429.946C246.616 432.306 249.087 434.472 250.624 437.313C251.389 438.779 251.836 440.39 251.935 442.041C252.033 443.692 251.782 445.345 251.197 446.891C249.84 450.783 247.166 453.956 244.442 456.967C241.419 460.311 238.225 463.736 236.94 468.169C236.784 468.706 235.96 468.433 236.115 467.897C238.351 460.184 245.838 455.804 249.408 448.857C251.074 445.616 251.774 441.853 250.212 438.431C248.846 435.439 246.3 433.204 244.105 430.833C241.773 428.444 240.062 425.52 239.121 422.317C238.272 418.917 238.008 415.397 238.34 411.909C238.962 404.043 240.817 396.324 243.837 389.035C247.238 380.696 252.04 373.001 258.035 366.282C258.406 365.866 258.979 366.52 258.61 366.933L258.61 366.933Z" fill="white"/>
<path d="M239.556 405.344C236.873 404.693 234.509 403.109 232.886 400.875C231.263 398.642 230.486 395.904 230.696 393.151C230.74 392.594 231.607 392.636 231.563 393.194C231.363 395.757 232.087 398.308 233.602 400.384C235.118 402.461 237.326 403.928 239.828 404.52C240.372 404.649 240.096 405.473 239.556 405.344Z" fill="white"/>
<path d="M243.223 428.896C248.069 426.002 251.646 421.388 253.241 415.975C253.399 415.438 254.223 415.711 254.066 416.247C252.395 421.878 248.663 426.671 243.613 429.671C243.132 429.957 242.744 429.18 243.223 428.896Z" fill="white"/>
<path d="M248.043 381.518C249.029 381.986 250.115 382.203 251.205 382.147C252.295 382.092 253.354 381.767 254.287 381.201C254.765 380.909 255.152 381.687 254.678 381.977C253.644 382.597 252.474 382.955 251.27 383.018C250.066 383.082 248.865 382.85 247.771 382.343C247.664 382.303 247.576 382.225 247.525 382.123C247.473 382.021 247.463 381.904 247.495 381.794C247.531 381.685 247.61 381.595 247.712 381.543C247.815 381.492 247.934 381.483 248.043 381.518Z" fill="white"/>
<path d="M315.259 401.485C314.966 401.675 314.672 401.866 314.379 402.064C310.452 404.646 306.742 407.543 303.284 410.726C303.013 410.968 302.742 411.217 302.478 411.466C294.23 419.223 287.493 428.445 282.611 438.661C280.672 442.728 279.046 446.937 277.745 451.251C275.95 457.209 274.477 463.812 270.923 468.685C270.557 469.198 270.161 469.687 269.735 470.151H237.615C237.542 470.114 237.469 470.085 237.396 470.048L236.113 470.107C236.165 469.88 236.223 469.645 236.275 469.418C236.304 469.286 236.34 469.154 236.37 469.022C236.392 468.934 236.414 468.846 236.429 468.766C236.436 468.737 236.443 468.707 236.45 468.685C236.465 468.605 236.487 468.531 236.502 468.458C236.824 467.146 237.156 465.835 237.498 464.523C237.498 464.515 237.498 464.515 237.506 464.508C240.016 454.488 243.706 444.8 248.498 435.649C248.645 435.378 248.791 435.1 248.952 434.829C251.172 430.778 253.718 426.915 256.567 423.279C258.133 421.293 259.798 419.388 261.557 417.571C266.111 412.883 271.373 408.941 277.152 405.889C288.672 399.807 302.009 397.476 314.321 401.192C314.636 401.287 314.944 401.382 315.259 401.485Z" fill="#F0F0F0"/>
<path d="M315.186 401.891C299.191 405.068 284.604 413.203 273.497 425.142C271.06 427.67 269.037 430.566 267.502 433.724C266.106 436.848 265.572 440.289 265.956 443.69C266.25 446.867 266.919 450.084 266.436 453.278C266.164 454.909 265.551 456.464 264.636 457.842C263.721 459.219 262.525 460.388 261.126 461.271C257.7 463.561 253.654 464.484 249.667 465.249C245.239 466.098 240.627 466.91 236.932 469.675C236.484 470.01 235.991 469.296 236.438 468.962C242.866 464.15 251.482 465.16 258.514 461.763C261.796 460.178 264.62 457.595 265.433 453.922C266.144 450.711 265.457 447.394 265.131 444.179C264.708 440.867 265.103 437.502 266.28 434.378C267.649 431.152 269.557 428.183 271.923 425.598C277.155 419.692 283.284 414.646 290.084 410.644C297.819 406.033 306.286 402.78 315.119 401.025C315.666 400.917 315.729 401.783 315.186 401.891V401.891Z" fill="white"/>
<path d="M276.848 421.086C275.098 418.95 274.164 416.262 274.213 413.502C274.262 410.741 275.29 408.088 277.115 406.015C277.485 405.597 278.152 406.154 277.781 406.572C276.079 408.499 275.121 410.97 275.081 413.541C275.04 416.112 275.92 418.612 277.562 420.591C277.918 421.022 277.202 421.514 276.848 421.086Z" fill="white"/>
<path d="M265.596 442.098C271.207 442.705 276.841 441.175 281.374 437.813C281.823 437.48 282.317 438.194 281.869 438.527C277.145 442.017 271.278 443.597 265.441 442.952C264.884 442.89 265.042 442.036 265.596 442.098Z" fill="white"/>
<path d="M297.967 407.174C298.472 408.142 299.21 408.969 300.113 409.581C301.017 410.193 302.058 410.571 303.144 410.681C303.701 410.735 303.542 411.589 302.989 411.535C301.79 411.408 300.64 410.989 299.64 410.315C298.641 409.641 297.821 408.732 297.253 407.669C297.192 407.573 297.168 407.457 297.189 407.345C297.209 407.233 297.272 407.133 297.363 407.065C297.458 407 297.575 406.975 297.688 406.995C297.801 407.016 297.901 407.08 297.967 407.174Z" fill="white"/>
<path d="M803.341 418.652C801.239 401.751 790.764 385.098 774.645 379.598C781.002 396.994 781.001 416.078 774.641 433.474C772.164 440.174 768.712 447.368 771.042 454.12C772.491 458.322 776.038 461.536 780.002 463.546C783.966 465.556 788.365 466.514 792.71 467.453L793.565 468.16C800.461 452.587 805.443 435.554 803.341 418.652Z" fill="#F0F0F0"/>
<path d="M774.484 379.916C783.871 390.434 789.705 403.642 791.158 417.665C791.524 420.678 791.413 423.73 790.829 426.709C790.167 429.592 788.744 432.245 786.709 434.392C784.852 436.433 782.716 438.305 781.388 440.761C780.726 442.028 780.34 443.421 780.255 444.848C780.169 446.275 780.386 447.704 780.892 449.042C782.065 452.406 784.377 455.149 786.732 457.752C789.346 460.643 792.107 463.604 793.218 467.436C793.353 467.901 794.065 467.665 793.931 467.201C791.997 460.534 785.525 456.746 782.439 450.741C780.998 447.939 780.394 444.686 781.744 441.728C782.925 439.141 785.126 437.209 787.024 435.159C789.04 433.094 790.519 430.566 791.332 427.796C792.066 424.857 792.294 421.814 792.007 418.799C791.469 411.999 789.866 405.325 787.255 399.024C784.315 391.815 780.164 385.162 774.981 379.353C774.66 378.994 774.165 379.559 774.484 379.916H774.484Z" fill="white"/>
<path d="M790.955 413.123C793.275 412.56 795.319 411.19 796.722 409.259C798.125 407.328 798.796 404.961 798.615 402.581C798.577 402.1 797.827 402.137 797.866 402.619C798.038 404.835 797.413 407.04 796.102 408.835C794.792 410.63 792.883 411.898 790.72 412.41C790.25 412.522 790.488 413.234 790.955 413.123Z" fill="white"/>
<path d="M787.788 433.485C783.598 430.983 780.506 426.994 779.127 422.314C778.99 421.85 778.278 422.086 778.414 422.549C779.858 427.417 783.085 431.562 787.45 434.155C787.866 434.402 788.202 433.73 787.788 433.485Z" fill="white"/>
<path d="M783.62 392.529C782.768 392.934 781.828 393.121 780.886 393.073C779.944 393.025 779.028 392.744 778.222 392.255C777.809 392.003 777.474 392.675 777.884 392.925C778.778 393.462 779.789 393.771 780.83 393.826C781.871 393.881 782.91 393.68 783.855 393.242C783.948 393.208 784.024 393.14 784.068 393.052C784.113 392.964 784.122 392.862 784.094 392.768C784.062 392.673 783.995 392.595 783.906 392.551C783.817 392.506 783.714 392.498 783.62 392.529L783.62 392.529Z" fill="white"/>
<path d="M725.512 409.785C725.765 409.95 726.018 410.115 726.272 410.286C729.667 412.518 732.875 415.023 735.864 417.774C736.098 417.983 736.333 418.199 736.561 418.414C743.691 425.12 749.515 433.092 753.736 441.925C755.412 445.441 756.818 449.079 757.943 452.809C759.495 457.96 760.768 463.668 763.841 467.881C764.156 468.324 764.499 468.747 764.867 469.148H792.635C792.698 469.116 792.762 469.091 792.825 469.059L793.934 469.11C793.889 468.913 793.839 468.711 793.794 468.514C793.769 468.4 793.737 468.286 793.712 468.172C793.693 468.096 793.674 468.02 793.661 467.95C793.655 467.925 793.649 467.9 793.642 467.881C793.63 467.811 793.611 467.748 793.598 467.684C793.319 466.55 793.032 465.416 792.736 464.282C792.736 464.276 792.736 464.276 792.73 464.27C790.56 455.607 787.37 447.232 783.227 439.321C783.1 439.086 782.974 438.846 782.834 438.611C780.916 435.109 778.714 431.77 776.252 428.627C774.898 426.91 773.458 425.263 771.937 423.692C768.001 419.639 763.451 416.231 758.456 413.593C748.496 408.335 736.966 406.32 726.323 409.532C726.05 409.614 725.784 409.697 725.512 409.785Z" fill="#F0F0F0"/>
<path d="M725.574 410.14C739.401 412.886 752.012 419.919 761.614 430.24C763.721 432.426 765.47 434.929 766.797 437.659C768.004 440.36 768.465 443.335 768.133 446.275C767.879 449.022 767.301 451.803 767.719 454.564C767.954 455.974 768.484 457.319 769.275 458.51C770.066 459.7 771.1 460.711 772.309 461.474C775.271 463.454 778.768 464.252 782.216 464.913C786.043 465.647 790.03 466.349 793.225 468.74C793.612 469.03 794.039 468.412 793.652 468.123C788.095 463.963 780.647 464.836 774.567 461.9C771.73 460.53 769.288 458.296 768.585 455.121C767.971 452.345 768.565 449.477 768.846 446.698C769.212 443.835 768.871 440.926 767.853 438.225C766.67 435.436 765.02 432.87 762.975 430.634C758.452 425.529 753.153 421.166 747.275 417.707C740.587 413.721 733.267 410.908 725.631 409.391C725.159 409.297 725.104 410.046 725.574 410.14Z" fill="white"/>
<path d="M758.717 426.735C760.23 424.889 761.038 422.565 760.996 420.178C760.953 417.792 760.064 415.498 758.487 413.706C758.166 413.345 757.59 413.826 757.911 414.188C759.382 415.853 760.211 417.99 760.245 420.212C760.28 422.435 759.519 424.597 758.1 426.307C757.792 426.679 758.411 427.105 758.717 426.735Z" fill="white"/>
<path d="M768.446 444.9C763.595 445.425 758.724 444.103 754.805 441.196C754.417 440.908 753.99 441.525 754.377 441.813C758.461 444.83 763.533 446.196 768.58 445.639C769.061 445.585 768.924 444.847 768.446 444.9H768.446Z" fill="white"/>
<path d="M740.459 414.708C740.022 415.544 739.385 416.259 738.603 416.788C737.822 417.317 736.922 417.644 735.984 417.739C735.502 417.786 735.639 418.525 736.118 418.478C737.154 418.368 738.148 418.005 739.012 417.423C739.877 416.84 740.585 416.055 741.076 415.135C741.129 415.052 741.149 414.952 741.131 414.855C741.114 414.758 741.06 414.672 740.981 414.613C740.899 414.557 740.798 414.535 740.7 414.553C740.602 414.571 740.516 414.626 740.459 414.708H740.459Z" fill="white"/>
<path d="M861.299 34.143H207.812C207.56 34.143 207.319 34.0431 207.141 33.8652C206.963 33.6873 206.863 33.4461 206.863 33.1946C206.863 32.943 206.963 32.7018 207.141 32.5239C207.319 32.346 207.56 32.2461 207.812 32.2461H861.299C861.551 32.2461 861.792 32.346 861.97 32.5239C862.148 32.7018 862.248 32.943 862.248 33.1946C862.248 33.4461 862.148 33.6873 861.97 33.8652C861.792 34.0431 861.551 34.143 861.299 34.143Z" fill="#CACACA"/>
<path d="M229.16 20.8661C234.922 20.8661 239.593 16.195 239.593 10.433C239.593 4.67103 234.922 0 229.16 0C223.398 0 218.727 4.67103 218.727 10.433C218.727 16.195 223.398 20.8661 229.16 20.8661Z" fill="#3F3D56"/>
<path d="M265.201 20.8661C270.963 20.8661 275.634 16.195 275.634 10.433C275.634 4.67103 270.963 0 265.201 0C259.439 0 254.768 4.67103 254.768 10.433C254.768 16.195 259.439 20.8661 265.201 20.8661Z" fill="#3F3D56"/>
<path d="M301.242 20.8661C307.004 20.8661 311.675 16.195 311.675 10.433C311.675 4.67103 307.004 0 301.242 0C295.48 0 290.809 4.67103 290.809 10.433C290.809 16.195 295.48 20.8661 301.242 20.8661Z" fill="#3F3D56"/>
<path d="M839.704 6.37977H814.096C813.593 6.37977 813.111 6.17992 812.755 5.82418C812.399 5.46844 812.199 4.98595 812.199 4.48285C812.199 3.97976 812.399 3.49727 812.755 3.14153C813.111 2.78579 813.593 2.58594 814.096 2.58594H839.705C839.954 2.58537 840.201 2.63401 840.432 2.72909C840.662 2.82416 840.872 2.96379 841.049 3.13999C841.225 3.31619 841.365 3.5255 841.461 3.75593C841.557 3.98635 841.606 4.23338 841.606 4.48285C841.606 4.73233 841.557 4.97935 841.461 5.20978C841.365 5.44021 841.225 5.64952 841.049 5.82572C840.872 6.00192 840.662 6.14155 840.432 6.23662C840.201 6.3317 839.954 6.38034 839.705 6.37977H839.704Z" fill="#3F3D56"/>
<path d="M839.704 13.4931H814.096C813.593 13.4931 813.111 13.2932 812.755 12.9375C812.399 12.5817 812.199 12.0992 812.199 11.5961C812.199 11.0931 812.399 10.6106 812.755 10.2548C813.111 9.89908 813.593 9.69922 814.096 9.69922H839.705C840.208 9.69922 840.69 9.89908 841.046 10.2548C841.402 10.6106 841.601 11.0931 841.601 11.5961C841.601 12.0992 841.402 12.5817 841.046 12.9375C840.69 13.2932 840.208 13.4931 839.705 13.4931H839.704Z" fill="#3F3D56"/>
<path d="M839.704 20.6102H814.096C813.593 20.6102 813.111 20.4104 812.755 20.0546C812.399 19.6989 812.199 19.2164 812.199 18.7133C812.199 18.2102 812.399 17.7277 812.755 17.372C813.111 17.0163 813.593 16.8164 814.096 16.8164H839.705C839.954 16.8158 840.201 16.8645 840.432 16.9596C840.662 17.0546 840.872 17.1943 841.049 17.3705C841.225 17.5467 841.365 17.756 841.461 17.9864C841.557 18.2168 841.606 18.4638 841.606 18.7133C841.606 18.9628 841.557 19.2098 841.461 19.4403C841.365 19.6707 841.225 19.88 841.049 20.0562C840.872 20.2324 840.662 20.372 840.432 20.4671C840.201 20.5622 839.954 20.6108 839.705 20.6102H839.704Z" fill="#3F3D56"/>
<path d="M841.601 74.8164H705.023V156.703H841.601V74.8164Z" fill="#6C63FF"/>
<path d="M814.355 194.323H733.091C732.077 194.322 731.105 193.918 730.388 193.2C729.672 192.482 729.27 191.51 729.27 190.496C729.27 189.482 729.672 188.509 730.388 187.791C731.105 187.074 732.077 186.67 733.091 186.668H814.355C815.37 186.668 816.343 187.071 817.061 187.789C817.779 188.507 818.182 189.48 818.182 190.496C818.182 191.511 817.779 192.484 817.061 193.202C816.343 193.92 815.37 194.323 814.355 194.323Z" fill="#E4E4E4"/>
<path d="M801.252 181.218H746.193C745.69 181.219 745.192 181.12 744.727 180.928C744.261 180.736 743.839 180.454 743.483 180.099C743.127 179.743 742.844 179.321 742.651 178.856C742.459 178.392 742.359 177.893 742.359 177.39C742.359 176.887 742.459 176.389 742.651 175.924C742.844 175.459 743.127 175.037 743.483 174.681C743.839 174.326 744.261 174.044 744.727 173.852C745.192 173.66 745.69 173.562 746.193 173.563H801.252C801.755 173.562 802.254 173.66 802.719 173.852C803.184 174.044 803.607 174.326 803.963 174.681C804.319 175.037 804.601 175.459 804.794 175.924C804.987 176.389 805.086 176.887 805.086 177.39C805.086 177.893 804.987 178.392 804.794 178.856C804.601 179.321 804.319 179.743 803.963 180.099C803.607 180.454 803.184 180.736 802.719 180.928C802.254 181.12 801.755 181.219 801.252 181.218Z" fill="#E4E4E4"/>
<path d="M841.601 223.723H705.023V305.61H841.601V223.723Z" fill="#F0F0F0"/>
<path d="M814.355 343.229H733.091C732.076 343.229 731.103 342.826 730.385 342.108C729.667 341.391 729.264 340.417 729.264 339.402C729.264 338.387 729.667 337.413 730.385 336.695C731.103 335.977 732.076 335.574 733.091 335.574H814.355C815.37 335.574 816.344 335.977 817.061 336.695C817.779 337.413 818.183 338.387 818.183 339.402C818.183 340.417 817.779 341.391 817.061 342.108C816.344 342.826 815.37 343.229 814.355 343.229Z" fill="#E4E4E4"/>
<path d="M801.252 330.128H746.193C745.178 330.128 744.204 329.725 743.486 329.007C742.769 328.289 742.365 327.315 742.365 326.3C742.365 325.285 742.769 324.312 743.486 323.594C744.204 322.876 745.178 322.473 746.193 322.473H801.252C802.267 322.473 803.241 322.876 803.958 323.594C804.676 324.312 805.08 325.285 805.08 326.3C805.08 327.315 804.676 328.289 803.958 329.007C803.241 329.725 802.267 330.128 801.252 330.128Z" fill="#E4E4E4"/>
<path d="M634.988 132.229H222.724C221.709 132.229 220.735 131.826 220.018 131.108C219.3 130.391 218.896 129.417 218.896 128.402C218.896 127.387 219.3 126.413 220.018 125.695C220.735 124.977 221.709 124.574 222.724 124.574H634.988C636.003 124.574 636.976 124.977 637.694 125.695C638.412 126.413 638.815 127.387 638.815 128.402C638.815 129.417 638.412 130.391 637.694 131.108C636.976 131.826 636.003 132.229 634.988 132.229Z" fill="#E4E4E4"/>
<path d="M634.988 161.229H222.724C221.709 161.229 220.735 160.826 220.018 160.108C219.3 159.391 218.896 158.417 218.896 157.402C218.896 156.387 219.3 155.413 220.018 154.695C220.735 153.977 221.709 153.574 222.724 153.574H634.988C636.003 153.574 636.976 153.977 637.694 154.695C638.412 155.413 638.815 156.387 638.815 157.402C638.815 158.417 638.412 159.391 637.694 160.108C636.976 160.826 636.003 161.229 634.988 161.229Z" fill="#E4E4E4"/>
<path d="M634.988 190.229H222.724C221.709 190.229 220.735 189.826 220.018 189.108C219.3 188.391 218.896 187.417 218.896 186.402C218.896 185.387 219.3 184.413 220.018 183.695C220.735 182.977 221.709 182.574 222.724 182.574H634.988C636.003 182.574 636.976 182.977 637.694 183.695C638.412 184.413 638.815 185.387 638.815 186.402C638.815 187.417 638.412 188.391 637.694 189.108C636.976 189.826 636.003 190.229 634.988 190.229Z" fill="#E4E4E4"/>
<path d="M634.988 219.229H222.724C221.709 219.229 220.735 218.826 220.018 218.108C219.3 217.391 218.896 216.417 218.896 215.402C218.896 214.387 219.3 213.413 220.018 212.695C220.735 211.977 221.709 211.574 222.724 211.574H634.988C636.003 211.574 636.976 211.977 637.694 212.695C638.412 213.413 638.815 214.387 638.815 215.402C638.815 216.417 638.412 217.391 637.694 218.108C636.976 218.826 636.003 219.229 634.988 219.229Z" fill="#E4E4E4"/>
<path d="M634.988 277.229H222.724C221.709 277.229 220.735 276.826 220.018 276.108C219.3 275.391 218.896 274.417 218.896 273.402C218.896 272.387 219.3 271.413 220.018 270.695C220.735 269.977 221.709 269.574 222.724 269.574H634.988C636.003 269.574 636.976 269.977 637.694 270.695C638.412 271.413 638.815 272.387 638.815 273.402C638.815 274.417 638.412 275.391 637.694 276.108C636.976 276.826 636.003 277.229 634.988 277.229Z" fill="#E4E4E4"/>
<path d="M634.988 306.229H222.724C221.709 306.229 220.735 305.826 220.018 305.108C219.3 304.391 218.896 303.417 218.896 302.402C218.896 301.387 219.3 300.413 220.018 299.695C220.735 298.977 221.709 298.574 222.724 298.574H634.988C636.003 298.574 636.976 298.977 637.694 299.695C638.412 300.413 638.815 301.387 638.815 302.402C638.815 303.417 638.412 304.391 637.694 305.108C636.976 305.826 636.003 306.229 634.988 306.229Z" fill="#E4E4E4"/>
<path d="M566.887 103.128H290.828C290.325 103.129 289.826 103.03 289.361 102.838C288.896 102.646 288.473 102.365 288.117 102.009C287.761 101.654 287.479 101.231 287.286 100.767C287.093 100.302 286.994 99.8035 286.994 99.3003C286.994 98.7971 287.093 98.2989 287.286 97.8341C287.479 97.3693 287.761 96.9471 288.117 96.5916C288.473 96.236 288.896 95.9542 289.361 95.7622C289.826 95.5703 290.325 95.4718 290.828 95.4727H566.887C567.39 95.4718 567.889 95.5703 568.354 95.7622C568.819 95.9542 569.241 96.236 569.597 96.5916C569.954 96.9471 570.236 97.3693 570.429 97.8341C570.622 98.2989 570.721 98.7971 570.721 99.3003C570.721 99.8035 570.622 100.302 570.429 100.767C570.236 101.231 569.954 101.654 569.597 102.009C569.241 102.365 568.819 102.646 568.354 102.838C567.889 103.03 567.39 103.129 566.887 103.128Z" fill="#E4E4E4"/>
<path d="M652.256 192.926L656.782 183.873C656.782 183.873 656.636 181.598 667.271 180.473L679.749 168.07L691.171 179.454L671.871 208.015L652.256 192.926Z" fill="#6C63FF"/>
<path d="M672.663 462.791H680.633L684.425 432.047L672.662 432.048L672.663 462.791Z" fill="#FFB6B6"/>
<path d="M670.629 460.188L686.326 460.188H686.326C688.979 460.188 691.523 461.242 693.399 463.117C695.275 464.993 696.329 467.538 696.329 470.19V470.516L670.629 470.517L670.629 460.188Z" fill="#2F2E41"/>
<path d="M631.926 462.791H639.896L643.688 432.047L631.924 432.048L631.926 462.791Z" fill="#FFB6B6"/>
<path d="M629.891 460.188L645.587 460.188H645.588C648.241 460.188 650.785 461.242 652.661 463.117C654.537 464.993 655.591 467.538 655.591 470.19V470.516L629.891 470.517L629.891 460.188Z" fill="#2F2E41"/>
<path d="M724.998 120.201C724.999 118.864 724.703 117.542 724.132 116.333C723.561 115.123 722.729 114.055 721.695 113.205C720.662 112.355 719.453 111.745 718.156 111.419C716.859 111.092 715.505 111.057 714.193 111.316C712.88 111.575 711.642 112.121 710.566 112.916C709.49 113.711 708.603 114.735 707.97 115.913C707.337 117.092 706.973 118.396 706.904 119.732C706.836 121.068 707.064 122.403 707.573 123.64L689.256 152.62L677.854 175.599L687.263 183.951L694.504 176.329L718.187 128.963C720.134 128.466 721.861 127.336 723.094 125.749C724.327 124.163 724.997 122.211 724.998 120.201Z" fill="#FFB6B6"/>
<path d="M629.943 215.259L611.989 212.477L607.712 244.958L584.409 295.103C582.889 296.05 581.684 297.427 580.947 299.059C580.209 300.691 579.972 302.505 580.265 304.271C580.558 306.038 581.368 307.679 582.593 308.985C583.818 310.291 585.403 311.205 587.148 311.611C588.892 312.017 590.718 311.896 592.394 311.265C594.069 310.634 595.521 309.519 596.564 308.063C597.606 306.607 598.194 304.875 598.253 303.085C598.311 301.295 597.838 299.528 596.892 298.007L621.256 254.012L629.943 215.259Z" fill="#FFB6B6"/>
<path d="M639.892 269.367C639.892 269.367 624.103 283.967 626.11 320.677L630.533 377.389L629.417 456.443L645.634 455.169L659.802 322.685L673.381 377.002L668.506 449.36L684.127 449.722L700.54 367.95L696.65 307.334L690.115 269.367H639.892Z" fill="#2F2E41"/>
<path d="M656.783 183.875L619.062 194.437L638.242 251.902L635.375 273.886L693.536 274.263L680.066 231.771C680.066 231.771 687.625 216.228 678.994 205.332L656.783 183.875Z" fill="#6C63FF"/>
<path d="M634.151 201.981C634.151 201.981 620.571 186.892 613.027 194.437C605.483 201.981 609.351 225.97 609.351 225.97L632.848 229.616L634.151 201.981Z" fill="#6C63FF"/>
<path d="M641.039 143.98C664.165 144.084 664.163 179.247 641.038 179.347C617.913 179.244 617.915 144.081 641.039 143.98Z" fill="#FFB6B6"/>
<path d="M643.612 160.495C646.738 162.336 649.986 164.219 653.592 164.613C657.199 165.008 661.281 163.49 662.728 160.164C663.181 159.011 663.421 157.786 663.437 156.548C663.754 150.229 661.568 144.041 657.352 139.324C655.237 137.012 652.647 135.183 649.761 133.963C646.874 132.742 643.758 132.159 640.626 132.252C634.65 132.512 629.128 135.34 623.826 138.107C618.95 140.652 613.801 143.456 611.152 148.276C607.226 155.419 610.088 164.163 610.85 172.278C611.385 178.329 610.696 184.425 608.823 190.203C606.95 195.982 603.932 201.323 599.949 205.91L632.853 209.027C636.857 209.407 640.941 209.782 644.866 208.905C648.253 208.149 651.371 206.489 653.889 204.102C656.408 201.715 658.232 198.69 659.169 195.349C660.106 192.008 660.12 188.475 659.209 185.127C658.299 181.778 656.498 178.739 653.998 176.333C649.327 171.836 641.817 168.653 641.632 162.172" fill="#2F2E41"/>
<path d="M888.826 462.055H880.096L875.943 428.383H888.827L888.826 462.055Z" fill="#9F616A"/>
<path d="M891.053 470.516L862.904 470.515V470.159C862.904 467.253 864.059 464.467 866.113 462.412C868.168 460.358 870.955 459.203 873.86 459.203H873.861L891.053 459.204L891.053 470.516Z" fill="#2F2E41"/>
<path d="M970.002 462.055H961.272L957.119 428.383H970.003L970.002 462.055Z" fill="#9F616A"/>
<path d="M972.228 470.516L944.08 470.515V470.159C944.08 467.253 945.235 464.467 947.289 462.412C949.344 460.358 952.13 459.203 955.036 459.203H955.037L972.229 459.204L972.228 470.516Z" fill="#2F2E41"/>
<path d="M885.348 291.179C885.348 291.179 878.02 311.067 879.067 319.442C880.114 327.816 871.74 386.436 872.786 391.67C873.833 396.904 871.74 423.073 872.786 427.261C873.833 431.448 869.849 436.449 871.942 440.636C874.036 444.823 876.974 453.43 876.974 453.43L890.582 452.383L892.675 440.869C892.675 440.869 898.956 439.822 897.909 433.541C896.863 427.261 903.143 385.389 903.143 385.389L920.939 326.769L946.061 380.155C946.061 380.155 947.108 417.839 950.249 422.027C953.389 426.214 947.108 437.728 950.249 441.915C953.389 446.103 956.529 453.43 956.529 453.43H972.231V445.056C972.231 445.056 981.652 439.822 972.231 424.12L965.865 329.824L959.584 286.906L885.348 291.179Z" fill="#2F2E41"/>
<path d="M924.37 159.556C935.168 159.556 943.921 150.802 943.921 140.004C943.921 129.207 935.168 120.453 924.37 120.453C913.572 120.453 904.818 129.207 904.818 140.004C904.818 150.802 913.572 159.556 924.37 159.556Z" fill="#A0616A"/>
<path d="M907.732 138.655C909.111 142.18 910.491 145.704 911.871 149.229C913.567 153.562 915.509 158.198 919.485 160.617C924.393 163.602 930.948 162.147 935.696 158.912C939.967 156.003 943.245 151.857 945.091 147.03C946.936 142.204 947.26 136.928 946.02 131.912C944.779 126.896 942.034 122.379 938.151 118.969C934.269 115.559 929.436 113.419 924.302 112.835L924.105 116.375L919.762 112.734C919.441 113.286 918.999 113.757 918.47 114.113C917.94 114.468 917.337 114.7 916.705 114.789C916.074 114.878 915.43 114.823 914.823 114.628C914.216 114.433 913.66 114.103 913.199 113.663C914.34 116.027 913.023 118.912 911.122 120.723C908.786 122.949 902.104 125.623 902.381 129.602C902.566 132.256 906.655 135.903 907.732 138.655Z" fill="#2F2E41"/>
<path d="M978.187 320.1C978.861 319.094 979.306 317.954 979.491 316.758C979.677 315.562 979.597 314.34 979.259 313.177C978.921 312.015 978.332 310.942 977.534 310.032C976.736 309.122 975.748 308.398 974.64 307.911L975.031 288.998L963.595 285.957L963.418 312.675C962.724 314.59 962.756 316.694 963.509 318.588C964.263 320.481 965.684 322.032 967.505 322.947C969.325 323.863 971.418 324.078 973.387 323.553C975.356 323.029 977.064 321.8 978.187 320.1V320.1Z" fill="#9F616A"/>
<path d="M938.893 171.64C938.893 171.64 923.742 164.065 909.433 169.115C895.124 174.165 887.548 180.057 887.548 180.057L896.807 228.876L884.182 294.529C884.182 294.529 948.993 289.479 954.885 294.529C960.777 299.58 960.777 288.637 960.777 288.637L955.727 226.351L964.986 186.791L938.893 171.64Z" fill="#3F3D56"/>
<path d="M874.948 321.218C875.877 320.442 876.624 319.472 877.138 318.376C877.651 317.281 877.918 316.085 877.92 314.875C877.922 313.665 877.658 312.469 877.147 311.372C876.637 310.274 875.892 309.302 874.965 308.524L880.65 290.481L870.528 284.352L862.857 309.945C861.653 311.589 861.094 313.617 861.285 315.646C861.476 317.674 862.405 319.562 863.895 320.952C865.386 322.341 867.334 323.136 869.371 323.185C871.408 323.234 873.392 322.534 874.948 321.218Z" fill="#9F616A"/>
<path d="M893.44 180.055H887.548C887.548 180.055 878.29 185.947 878.29 194.364C878.29 202.781 864.822 301.261 864.822 301.261L879.131 303.786L891.757 234.766L901.016 216.248L893.44 180.055Z" fill="#3F3D56"/>
<path d="M948.994 186.789H964.987C964.987 186.789 970.037 191.839 972.562 203.623C975.087 215.407 977.612 261.701 977.612 261.701L975.929 303.786H963.303L961.62 249.075L953.203 213.724L948.994 186.789Z" fill="#3F3D56"/>
<path d="M207.682 242.805C207.278 243 206.89 243.227 206.522 243.484L169.081 228.848L167.597 219.195L152.736 219.531L153.703 236.875C153.781 238.276 154.312 239.614 155.215 240.688C156.118 241.762 157.345 242.514 158.712 242.831L203.265 253.166C203.809 254.806 204.839 256.242 206.219 257.282C207.599 258.322 209.263 258.917 210.99 258.988C212.716 259.06 214.423 258.604 215.884 257.681C217.345 256.758 218.491 255.413 219.168 253.823C219.846 252.234 220.023 250.476 219.677 248.783C219.331 247.09 218.478 245.542 217.231 244.346C215.984 243.15 214.403 242.362 212.697 242.086C210.991 241.811 209.242 242.062 207.682 242.805H207.682Z" fill="#9F616A"/>
<path d="M151.465 460.883L161.403 460.882L166.13 422.551H151.463L151.465 460.883Z" fill="#9F616A"/>
<path d="M148.93 457.638L168.501 457.637H168.502C171.81 457.637 174.982 458.951 177.321 461.29C179.66 463.629 180.974 466.801 180.974 470.109V470.514L148.93 470.515L148.93 457.638Z" fill="#2F2E41"/>
<path d="M103.64 460.883L113.578 460.882L118.306 422.551H103.639L103.64 460.883Z" fill="#9F616A"/>
<path d="M101.104 457.638L120.675 457.637H120.676C123.983 457.637 127.156 458.951 129.495 461.29C131.834 463.629 133.148 466.801 133.148 470.109V470.514L101.104 470.515L101.104 457.638Z" fill="#2F2E41"/>
<path d="M109.402 168.633C106.572 156.947 104.174 143.767 109.511 133.004C113.215 125.536 126.916 123.021 134.769 125.711C142.623 128.402 148.301 135.701 150.799 143.659C153.296 151.618 153.006 160.193 151.917 168.467C137.473 168.189 123.029 167.912 109.402 168.633Z" fill="#2F2E41"/>
<path d="M133.777 168.632C143.079 168.632 150.62 161.091 150.62 151.789C150.62 142.486 143.079 134.945 133.777 134.945C124.475 134.945 116.934 142.486 116.934 151.789C116.934 161.091 124.475 168.632 133.777 168.632Z" fill="#9F616A"/>
<path d="M113.185 148.317C113.132 145.482 113.649 142.666 114.705 140.035C115.762 137.403 117.336 135.012 119.335 133.001C121.335 130.99 123.717 129.402 126.343 128.331C128.968 127.259 131.781 126.726 134.616 126.764C137.451 126.801 140.25 127.408 142.846 128.548C145.442 129.688 147.782 131.339 149.728 133.402C151.673 135.464 153.184 137.897 154.171 140.555C155.158 143.213 155.6 146.042 155.472 148.875C141.055 148.905 126.638 148.936 113.185 148.317Z" fill="#2F2E41"/>
<path d="M119.798 230.77L112.754 242.51C112.754 242.51 93.4627 278.692 94.61 308.683L98.8792 346.039L94.194 355.206L97.3301 371.334L91.5059 382.888L102.034 438.666L102.482 450.763H119.507L118.611 438.442L125.779 384.103L137.876 326.084L144.148 376.168L141.908 388.712L144.82 399.241L148.852 431.722L149.3 447.403L164.757 449.195L170.581 391.176L173.941 363.494L155.934 240.754L119.798 230.77Z" fill="#2F2E41"/>
<path d="M117.565 174.082L107.077 178.536L101.188 202.913L113.589 234.673L108.953 250.542C122.987 274.548 140.357 278.036 160.798 262.641C156.472 250.495 157.097 238.005 161.408 225.261C161.408 225.261 172.161 215.248 164.649 202.23L157.484 182.782L148.613 178.347L117.565 174.082Z" fill="#CBCBCB"/>
<path d="M155.418 187.023L157.799 182.602C157.799 182.602 164.077 183.546 166.641 191.104C169.206 198.662 169.872 229.196 169.872 229.196L156.438 229.876L155.418 187.023Z" fill="#CBCBCB"/>
<path d="M483.421 186.666L84.2024 289.552C83.2208 289.801 82.1806 289.651 81.3095 289.135C80.4384 288.618 79.8074 287.778 79.5547 286.797C79.302 285.817 79.4482 284.776 79.9612 283.903C80.4742 283.03 81.3123 282.396 82.2919 282.139L481.511 179.253C481.998 179.126 482.506 179.096 483.005 179.165C483.503 179.235 483.984 179.402 484.418 179.657C484.852 179.913 485.231 180.251 485.534 180.653C485.837 181.056 486.058 181.514 486.184 182.001C486.31 182.489 486.338 182.997 486.267 183.495C486.196 183.994 486.027 184.474 485.771 184.907C485.514 185.34 485.174 185.719 484.771 186.021C484.368 186.322 483.909 186.542 483.421 186.666Z" fill="#6C63FF"/>
<path d="M102.789 290.657C103.928 290.09 104.93 289.28 105.723 288.284C106.515 287.288 107.08 286.13 107.377 284.892C107.674 283.654 107.696 282.366 107.441 281.119C107.186 279.871 106.661 278.695 105.903 277.673L112.414 214.008H98.342L93.1671 276.173C91.534 277.561 90.4668 279.5 90.1677 281.623C89.8686 283.745 90.3585 285.904 91.5445 287.689C92.7305 289.474 94.5301 290.763 96.6025 291.31C98.6749 291.857 100.876 291.625 102.789 290.657V290.657Z" fill="#9F616A"/>
<path d="M115.646 185.739L110.715 178.767C110.715 178.767 102.042 172.888 97.6206 186.42C93.1992 199.952 93.8795 225.021 93.8795 225.021L110.715 231.993L115.646 185.739Z" fill="#CBCBCB"/>
<path d="M382 471.148H1C0.734784 471.148 0.480429 471.043 0.292892 470.856C0.105356 470.668 0 470.414 0 470.148C0 469.883 0.105356 469.629 0.292892 469.441C0.480429 469.254 0.734784 469.148 1 469.148H382C382.265 469.148 382.52 469.254 382.707 469.441C382.895 469.629 383 469.883 383 470.148C383 470.414 382.895 470.668 382.707 470.856C382.52 471.043 382.265 471.148 382 471.148Z" fill="#CACACA"/>
<path d="M982 471.148H601C600.735 471.148 600.48 471.043 600.293 470.856C600.105 470.668 600 470.414 600 470.148C600 469.883 600.105 469.629 600.293 469.441C600.48 469.254 600.735 469.148 601 469.148H982C982.265 469.148 982.52 469.254 982.707 469.441C982.895 469.629 983 469.883 983 470.148C983 470.414 982.895 470.668 982.707 470.856C982.52 471.043 982.265 471.148 982 471.148Z" fill="#CACACA"/>
</g>
<defs>
<clipPath id="clip0">
<rect width="983" height="471.149" fill="white"/>
</clipPath>
</defs>
</svg>
