<svg width="18" height="18" viewBox="0 0 18 18" fill="none" xmlns="http://www.w3.org/2000/svg">
<path d="M1.72729 7.96587V2.04541C1.72729 1.49313 2.17501 1.04541 2.72729 1.04541H6.52275C7.07503 1.04541 7.52275 1.49313 7.52275 2.04541V7.96587C7.52275 8.51815 7.07503 8.96587 6.52275 8.96587H2.72729C2.17501 8.96587 1.72729 8.51815 1.72729 7.96587Z" stroke="#CDCACA" stroke-width="1.5"/>
<path d="M16.1818 1.04541H12.3864C11.8341 1.04541 11.3864 1.49313 11.3864 2.04541V4.00564C11.3864 4.55792 11.8341 5.00564 12.3864 5.00564H16.1818C16.7341 5.00564 17.1818 4.55792 17.1818 4.00564V2.04541C17.1818 1.49313 16.7341 1.04541 16.1818 1.04541Z" stroke="#CDCACA" stroke-width="1.5"/>
<path d="M6.52275 12.9261H2.72729C2.17501 12.9261 1.72729 13.3739 1.72729 13.9261V15.8864C1.72729 16.4386 2.17501 16.8864 2.72729 16.8864H6.52275C7.07503 16.8864 7.52275 16.4386 7.52275 15.8864V13.9261C7.52275 13.3739 7.07503 12.9261 6.52275 12.9261Z" fill="#CDCACA"/>
<path d="M16.1818 9.46094H12.3864C11.8341 9.46094 11.3864 9.90865 11.3864 10.4609V15.8864C11.3864 16.4386 11.8341 16.8864 12.3864 16.8864H16.1818C16.7341 16.8864 17.1818 16.4386 17.1818 15.8864V13.1736V10.4609C17.1818 9.90865 16.7341 9.46094 16.1818 9.46094Z" fill="#CDCACA"/>
<path d="M6.52275 12.9261H2.72729C2.17501 12.9261 1.72729 13.3739 1.72729 13.9261V15.8864C1.72729 16.4386 2.17501 16.8864 2.72729 16.8864H6.52275C7.07503 16.8864 7.52275 16.4386 7.52275 15.8864V13.9261C7.52275 13.3739 7.07503 12.9261 6.52275 12.9261Z" stroke="#CDCACA" stroke-width="1.5"/>
<path d="M16.1818 9.46094H12.3864C11.8341 9.46094 11.3864 9.90865 11.3864 10.4609V15.8864C11.3864 16.4386 11.8341 16.8864 12.3864 16.8864H16.1818C16.7341 16.8864 17.1818 16.4386 17.1818 15.8864V13.1736V10.4609C17.1818 9.90865 16.7341 9.46094 16.1818 9.46094Z" stroke="#CDCACA" stroke-width="1.5"/>
</svg>
