<svg width="17" height="17" viewBox="0 0 17 17" fill="none" xmlns="http://www.w3.org/2000/svg">
<rect width="17" height="17" rx="8.5" fill="#CDCACA"/>
<path opacity="0.5" d="M11.8056 8.81502C12.5885 8.81502 13.2222 8.18132 13.2222 7.39836C13.2222 6.61539 12.5885 5.98169 11.8056 5.98169C11.0226 5.98169 10.3889 6.61539 10.3889 7.39836C10.3889 8.18132 11.0226 8.81502 11.8056 8.81502Z" fill="#26303E"/>
<path opacity="0.5" d="M5.1945 8.81502C5.97746 8.81502 6.61117 8.18132 6.61117 7.39836C6.61117 6.61539 5.97746 5.98169 5.1945 5.98169C4.41154 5.98169 3.77783 6.61539 3.77783 7.39836C3.77783 8.18132 4.41154 8.81502 5.1945 8.81502Z" fill="#26303E"/>
<path d="M8.59022 8.26959C9.53278 8.26959 10.2957 7.47617 10.2957 6.49588C10.2957 5.51559 9.53278 4.72217 8.59022 4.72217C7.64765 4.72217 6.88477 5.51559 6.88477 6.49588C6.88477 7.47617 7.64765 8.26959 8.59022 8.26959Z" fill="#26303E"/>
<path opacity="0.5" d="M13.7898 11.3335H9.82107C9.62482 11.3335 9.4764 11.1558 9.51127 10.9627L9.79449 9.3939C9.81471 9.28192 9.89378 9.18956 10.0013 9.15233L10.8188 8.86932C10.9171 8.83529 11.0248 8.85397 11.114 8.90746C11.6683 9.23985 12.1909 9.09674 12.4873 8.92017C12.5839 8.86263 12.7005 8.83759 12.8067 8.87437L13.6096 9.15233C13.7171 9.18956 13.7962 9.28192 13.8164 9.3939L14.0996 10.9627C14.1345 11.1558 13.9861 11.3335 13.7898 11.3335Z" fill="#26303E"/>
<path opacity="0.5" d="M7.17874 11.3335H3.20999C3.01374 11.3335 2.86532 11.1558 2.90018 10.9627L3.18341 9.3939C3.20362 9.28192 3.28269 9.18956 3.39022 9.15233L4.20772 8.86932C4.306 8.83529 4.41371 8.85397 4.5029 8.90746C5.05719 9.23985 5.5798 9.09674 5.8762 8.92017C5.97277 8.86263 6.08937 8.83759 6.1956 8.87437L6.99851 9.15233C7.10603 9.18956 7.1851 9.28192 7.20532 9.3939L7.48854 10.9627C7.52341 11.1558 7.37499 11.3335 7.17874 11.3335Z" fill="#26303E"/>
<path d="M11.2736 11.648H5.72677C5.53119 11.648 5.38294 11.4716 5.41667 11.2789L5.83095 8.91241C5.85049 8.8008 5.92849 8.7083 6.0352 8.67021L7.2329 8.24261C7.33341 8.20672 7.44475 8.22591 7.53413 8.28424C8.321 8.79768 9.06603 8.55948 9.45812 8.29853C9.55404 8.23469 9.67382 8.20916 9.78234 8.24791L10.9652 8.67021C11.0719 8.7083 11.1499 8.8008 11.1694 8.91241L11.5837 11.2789C11.6175 11.4716 11.4692 11.648 11.2736 11.648Z" fill="#26303E"/>
</svg>
