<svg width="17" height="17" viewBox="0 0 17 17" fill="none" xmlns="http://www.w3.org/2000/svg" >
<circle cx="8.5" cy="8.5" r="7.75" stroke="#BEBBB3" stroke-width="1.5" class="svg-secondary" />
<path d="M5.38775 8.77957C5.09486 8.48667 4.61999 8.48667 4.32709 8.77957C4.0342 9.07246 4.0342 9.54733 4.32709 9.84023L5.38775 8.77957ZM12.2687 7.00689C12.5616 6.714 12.5616 6.23913 12.2687 5.94623C11.9758 5.65334 11.5009 5.65334 11.208 5.94623L12.2687 7.00689ZM6.73981 11.1923L6.20948 11.7226L6.73981 11.1923ZM7.02265 11.1923L7.55298 11.7226L7.02265 11.1923ZM4.32709 9.84023L6.20948 11.7226L7.27014 10.662L5.38775 8.77957L4.32709 9.84023ZM7.55298 11.7226L12.2687 7.00689L11.208 5.94623L6.49232 10.662L7.55298 11.7226ZM6.20948 11.7226C6.58048 12.0936 7.18198 12.0936 7.55298 11.7226L6.49232 10.662C6.70711 10.4472 7.05535 10.4472 7.27014 10.662L6.20948 11.7226Z" fill="#BEBBB3" class="svg-primary"/>
</svg>
